<?xml version="1.0" encoding="UTF-8" standalone="yes"?>
<svg xmlns="http://www.w3.org/2000/svg" xmlns:v="http://schemas.microsoft.com/visio/2003/SVGExtensions/" xml:space="preserve" xmlns:xlink="http://www.w3.org/1999/xlink" width="9.84252in" height="7.3818893in" viewBox="0 0 708.66144 531.49603">
 <v:documentProperties>
  <v:userDefs>
   <v:ud v:nameU="msvNoAutoConnect" v:val="1"/>
  </v:userDefs>
 </v:documentProperties>
 <g id="SFixTitle"/>
 <g id="SContent">
  <g>
   <g transform="matrix(1,0,0,-1,0,531.49603)">
    <g transform="matrix(1,0,0,1,154.48819,375.59055)" v:mID="1">
     <title>Shape1</title>
     <path d="M0,35.433071136 L77.95275116,35.433071136 L77.95275116,35.433071136 L77.95275116,0 L77.95275116,0 L0,0 L0,0 L0,35.433071136 Z" stroke="#000000" stroke-width="1.4173229" stroke-linecap="round" fill="#FFFFFF"  fill-rule="evenodd"/>
     <g transform="matrix(1,0,0,1,1.4173203,1.4173241)">
      <text x="27.483316" y="4.5368505" class="TextStyle0" fill="#000000" opacity="1" transform="matrix(1,0,0,-1,0,18.567636)">Wallet</text>
     </g>
    </g>
    <g transform="matrix(1,0,0,1,329.52756,375.59055)" v:mID="2">
     <title>Shape2</title>
     <path d="M0,35.433071136 L77.95275116,35.433071136 L77.95275116,35.433071136 L77.95275116,0 L77.95275116,0 L0,0 L0,0 L0,35.433071136 Z" stroke="#000000" stroke-width="1.4173229" stroke-linecap="round" fill="#FFFFFF"  fill-rule="evenodd"/>
     <g transform="matrix(1,0,0,1,1.4173203,1.4173241)">
      <text x="27.479626" y="4.5368505" class="TextStyle0" fill="#000000" opacity="1" transform="matrix(1,0,0,-1,0,18.567636)">Node1</text>
     </g>
    </g>
    <g transform="matrix(1,0,0,1,510.2362,375.59055)" v:mID="3">
     <title>Shape3</title>
     <path d="M0,35.433071136 L77.95275116,35.433071136 L77.95275116,35.433071136 L77.95275116,0 L77.95275116,0 L0,0 L0,0 L0,35.433071136 Z" stroke="#000000" stroke-width="1.4173229" stroke-linecap="round" fill="#FFFFFF"  fill-rule="evenodd"/>
     <g transform="matrix(1,0,0,1,1.4173203,1.4173241)">
      <text x="27.479626" y="4.5368505" class="TextStyle0" fill="#000000" opacity="1" transform="matrix(1,0,0,-1,0,18.567636)">Node2</text>
     </g>
    </g>
    <g transform="matrix(1,0,0,1,53.149605,215.43307)" v:mID="4">
     <title>Dynamic connector.4</title>
     <g transform="matrix(1,0,0,1,0,0)" v:mID="4">
      <title>Dynamic connector.4</title>
      <path d="M451.326629639,174.994018555 L457.086639404,177.874008179 L451.326629639,180.753997803 M451.326629639,174.994018555 C452.478607178,176.722000122 452.478607178,179.026016235 451.326629639,180.753997803 " stroke="#000000" stroke-width="0" fill="#000000"  fill-rule="evenodd" opacity="0" transform="matrix(1,0,0,1,0,0)"/>
      <path d="M354.330718994,177.874008179 L457.086639404,177.874008179 " stroke="#000000" stroke-width="1.4173229" stroke-linecap="round" fill="none" stroke-opacity="0"/>
     </g>
     <path d="M451.326629639,174.994018555 L457.086639404,177.874008179 L451.326629639,180.753997803 M451.326629639,174.994018555 C452.478607178,176.722000122 452.478607178,179.026016235 451.326629639,180.753997803 " stroke="#000000" stroke-width="0" fill="#000000"  fill-rule="evenodd" transform="matrix(1,0,0,1,0,0)"/>
     <path d="M354.330718994,177.874008179 L457.086639404,177.874008179 " stroke="#000000" stroke-width="1.4173229" stroke-linecap="round" fill="none"/>
    </g>
    <g transform="matrix(1,0,0,1,154.48819,450)" v:mID="5">
     <title>Shape5</title>
     <path d="M0,35.433071136 L77.95275116,35.433071136 L77.95275116,35.433071136 L77.95275116,0 L77.95275116,0 L0,0 L0,0 L0,35.433071136 Z" stroke="#000000" stroke-width="1.4173229" stroke-linecap="round" fill="#FFFFFF"  fill-rule="evenodd"/>
     <g transform="matrix(1,0,0,1,1.4173203,1.4173241)">
      <text x="27.483316" y="4.5368505" class="TextStyle0" fill="#000000" opacity="1" transform="matrix(1,0,0,-1,0,18.567636)">Wallet</text>
     </g>
    </g>
    <g transform="matrix(1,0,0,1,329.52756,450)" v:mID="6">
     <title>Shape6</title>
     <path d="M0,35.433071136 L77.95275116,35.433071136 L77.95275116,35.433071136 L77.95275116,0 L77.95275116,0 L0,0 L0,0 L0,35.433071136 Z" stroke="#000000" stroke-width="1.4173229" stroke-linecap="round" fill="#FFFFFF"  fill-rule="evenodd"/>
     <g transform="matrix(1,0,0,1,1.4173203,1.4173241)">
      <text x="12.257105" y="4.5368505" class="TextStyle0" fill="#000000" opacity="1" transform="matrix(1,0,0,-1,0,18.567636)">Connected Node</text>
     </g>
    </g>
    <g transform="matrix(1,0,0,1,232.44096,400.39368)" v:mID="7">
     <title>Shape7</title>
     <g transform="matrix(1,0,0,1,1.4173241,0.70866156)">
      <text x="15.759984" y="4.5368505" class="TextStyle0" fill="#000000" opacity="1" transform="matrix(1,0,0,-1,0,6.8747244)">submitTransaction()</text>
     </g>
    </g>
    <g transform="matrix(1,0,0,1,325.98425,419.52753)" v:mID="8">
     <title>Shape8</title>
     <g transform="matrix(1,0,0,1,1.4173241,0.70866156)">
      <text x="11.711415" y="4.5368505" class="TextStyle0" fill="#000000" opacity="1" transform="matrix(1,0,0,-1,0,6.8747244)">verifyTransaction()</text>
     </g>
    </g>
    <g transform="matrix(1,0,0,1,403.93704,400.39368)" v:mID="9">
     <title>Shape9</title>
     <g transform="matrix(1,0,0,1,1.4173203,0.70866156)">
      <text x="16.882568" y="4.5368505" class="TextStyle0" fill="#000000" opacity="1" transform="matrix(1,0,0,-1,0,6.8747244)">broadcastTransaction()</text>
     </g>
    </g>
    <g transform="matrix(1,0,0,1,510.2362,333.0709)" v:mID="10">
     <title>Shape10</title>
     <path d="M0,35.433071136 L77.95275116,35.433071136 L77.95275116,35.433071136 L77.95275116,0 L77.95275116,0 L0,0 L0,0 L0,35.433071136 Z" stroke="#000000" stroke-width="1.4173229" stroke-linecap="round" fill="#FFFFFF"  fill-rule="evenodd"/>
     <g transform="matrix(1,0,0,1,1.4173203,1.4173241)">
      <text x="27.479626" y="4.5368505" class="TextStyle0" fill="#000000" opacity="1" transform="matrix(1,0,0,-1,0,18.567636)">Node3</text>
     </g>
    </g>
    <g transform="matrix(1,0,0,1,53.149605,173.62206)" v:mID="11">
     <title>Dynamic connector.11</title>
     <path d="M451.326629639,174.285354614 L457.086639404,177.165359497 L451.326629639,180.045349121 M451.326629639,174.285354614 C452.478607178,176.01335144 452.478607178,178.317352295 451.326629639,180.045349121 " stroke="#000000" stroke-width="0" fill="#000000"  fill-rule="evenodd" transform="matrix(1,0,0,1,0,0)"/>
     <path d="M354.330718994,219.685043335 L405.708648682,219.685043335 L405.708648682,219.685043335 L405.708648682,177.165359497 L405.708648682,177.165359497 L457.086639404,177.165359497 " stroke="#000000" stroke-width="1.4173229" stroke-linecap="round" fill="none"/>
    </g>
    <g transform="matrix(1,0,0,1,155.90552,255.47243)" v:mID="12">
     <title>Shape12</title>
     <path d="M0,35.433071136 L77.95275116,35.433071136 L77.95275116,35.433071136 L77.95275116,0 L77.95275116,0 L0,0 L0,0 L0,35.433071136 Z" stroke="#000000" stroke-width="1.4173229" stroke-linecap="round" fill="#FFFFFF"  fill-rule="evenodd"/>
     <g transform="matrix(1,0,0,1,1.4173203,1.4173241)">
      <text x="28.319578" y="4.5368505" class="TextStyle0" fill="#000000" opacity="1" transform="matrix(1,0,0,-1,0,18.567636)">Miner</text>
     </g>
    </g>
    <g transform="matrix(1,0,0,1,325.98425,255.47243)" v:mID="13">
     <title>Shape13</title>
     <path d="M0,35.433071136 L77.95275116,35.433071136 L77.95275116,35.433071136 L77.95275116,0 L77.95275116,0 L0,0 L0,0 L0,35.433071136 Z" stroke="#000000" stroke-width="1.4173229" stroke-linecap="round" fill="#FFFFFF"  fill-rule="evenodd"/>
     <g transform="matrix(1,0,0,1,1.4173203,1.4173241)">
      <text x="27.479626" y="4.5368505" class="TextStyle0" fill="#000000" opacity="1" transform="matrix(1,0,0,-1,0,18.567636)">Node1</text>
     </g>
    </g>
    <g transform="matrix(1,0,0,1,-120.47244,95.31496)" v:mID="14">
     <title>Dynamic connector.14</title>
     <path d="M440.696716309,174.994018555 L446.456695557,177.874008179 L440.696716309,180.753997803 M440.696716309,174.994018555 C441.848693848,176.722000122 441.848693848,179.026016235 440.696716309,180.753997803 " stroke="#000000" stroke-width="0" fill="#000000"  fill-rule="evenodd" transform="matrix(1,0,0,1,0,0)"/>
     <path d="M354.330718994,177.874008179 L446.456695557,177.874008179 " stroke="#000000" stroke-width="1.4173229" stroke-linecap="round" fill="none"/>
    </g>
    <g transform="matrix(1,0,0,1,162.99213,294.0945)" v:mID="15">
     <title>Shape15</title>
     <g transform="matrix(1,0,0,1,1.4173222,1.4173231)">
      <text x="11.15169" y="0" class="TextStyle0" fill="#000000" opacity="1" transform="matrix(1,0,0,-1,0,11.481024)">buildBlock()</text>
      <text x="11.363985" y="9.073701" class="TextStyle0" fill="#000000" opacity="1" transform="matrix(1,0,0,-1,0,11.481024)">mineBlock()</text>
     </g>
    </g>
    <g transform="matrix(1,0,0,1,232.44095,280.27557)" v:mID="16">
     <title>Shape16</title>
     <g transform="matrix(1,0,0,1,1.4173241,0.70866156)">
      <text x="15.067533" y="4.5368505" class="TextStyle0" fill="#000000" opacity="1" transform="matrix(1,0,0,-1,0,6.8747244)">broadcastBlock()</text>
     </g>
    </g>
    <g transform="matrix(1,0,0,1,333.07086,299.40945)" v:mID="17">
     <title>Shape17</title>
     <g transform="matrix(1,0,0,1,1.4173222,0.70866156)">
      <text x="9.896378" y="4.5368505" class="TextStyle0" fill="#000000" opacity="1" transform="matrix(1,0,0,-1,0,6.8747244)">verifyBlock()</text>
     </g>
    </g>
    <g transform="matrix(1,0,0,1,53.149605,95.31496)" v:mID="18">
     <title>Dynamic connector.18</title>
     <path d="M451.326629639,174.994018555 L457.086639404,177.874008179 L451.326629639,180.753997803 M451.326629639,174.994018555 C452.478607178,176.722000122 452.478607178,179.026016235 451.326629639,180.753997803 " stroke="#000000" stroke-width="0" fill="#000000"  fill-rule="evenodd" transform="matrix(1,0,0,1,0,0)"/>
     <path d="M354.330718994,177.874008179 L457.086639404,177.874008179 " stroke="#000000" stroke-width="1.4173229" stroke-linecap="round" fill="none"/>
    </g>
    <g transform="matrix(1,0,0,1,49.6063,53.503937)" v:mID="20">
     <title>Dynamic connector.20</title>
     <path d="M454.869934082,174.285354614 L460.62991333,177.165359497 L454.869934082,180.045349121 M454.869934082,174.285354614 C456.021881104,176.01335144 456.021881104,178.317352295 454.869934082,180.045349121 " stroke="#000000" stroke-width="0" fill="#000000"  fill-rule="evenodd" transform="matrix(1,0,0,1,0,0)"/>
     <path d="M354.330718994,219.685043335 L407.480285645,219.685043335 L407.480285645,219.685043335 L407.480285645,177.165359497 L407.480285645,177.165359497 L460.62991333,177.165359497 " stroke="#000000" stroke-width="1.4173229" stroke-linecap="round" fill="none"/>
    </g>
    <g transform="matrix(1,0,0,1,510.2362,255.47243)" v:mID="19">
     <title>Shape19</title>
     <path d="M0,35.433071136 L77.95275116,35.433071136 L77.95275116,35.433071136 L77.95275116,0 L77.95275116,0 L0,0 L0,0 L0,35.433071136 Z" stroke="#000000" stroke-width="1.4173229" stroke-linecap="round" fill="#FFFFFF"  fill-rule="evenodd"/>
     <g transform="matrix(1,0,0,1,1.4173203,1.4173241)">
      <text x="27.479626" y="4.5368505" class="TextStyle0" fill="#000000" opacity="1" transform="matrix(1,0,0,-1,0,18.567636)">Node2</text>
     </g>
    </g>
    <g transform="matrix(1,0,0,1,414.56696,280.27557)" v:mID="22">
     <title>Shape22</title>
     <g transform="matrix(1,0,0,1,1.4173241,0.70866156)">
      <text x="15.067533" y="4.5368505" class="TextStyle0" fill="#000000" opacity="1" transform="matrix(1,0,0,-1,0,6.8747244)">broadcastBlock()</text>
     </g>
    </g>
    <g transform="matrix(1,0,0,1,510.2362,212.95274)" v:mID="21">
     <title>Shape21</title>
     <path d="M0,35.433071136 L77.95275116,35.433071136 L77.95275116,35.433071136 L77.95275116,0 L77.95275116,0 L0,0 L0,0 L0,35.433071136 Z" stroke="#000000" stroke-width="1.4173229" stroke-linecap="round" fill="#FFFFFF"  fill-rule="evenodd"/>
     <g transform="matrix(1,0,0,1,1.4173203,1.4173241)">
      <text x="27.479626" y="4.5368505" class="TextStyle0" fill="#000000" opacity="1" transform="matrix(1,0,0,-1,0,18.567636)">Node3</text>
     </g>
    </g>
    <g transform="matrix(1,0,0,1,152.36221,496.06296)" v:mID="23">
     <title>Shape23</title>
     <g transform="matrix(1,0,0,1,1.4173241,0.70866156)">
      <text x="12.966727" y="4.5368505" class="TextStyle0" fill="#000000" opacity="1" transform="matrix(1,0,0,-1,0,6.8747244)">buildTransaction()</text>
     </g>
    </g>
    <g transform="matrix(1,0,0,1,232.44096,449.99997)" v:mID="24">
     <title>Shape24</title>
     <g transform="matrix(1,0,0,1,1.4173241,0.70866156)">
      <text x="15.759984" y="4.5368505" class="TextStyle0" fill="#000000" opacity="1" transform="matrix(1,0,0,-1,0,6.8747244)">submitTransaction()</text>
     </g>
    </g>
    <g transform="matrix(1,0,0,1,240.94489,474.80316)" v:mID="25">
     <title>Shape25</title>
     <g transform="matrix(1,0,0,1,1.4173241,0.70866156)">
      <text x="14.222042" y="4.5368505" class="TextStyle0" fill="#000000" opacity="1" transform="matrix(1,0,0,-1,0,6.8747244)">updateMyUtxos()</text>
     </g>
    </g>
    <g transform="matrix(1,0,0,1,510.23624,419.52753)" v:mID="26">
     <title>Shape26</title>
     <g transform="matrix(1,0,0,1,1.4173241,0.70866156)">
      <text x="11.711415" y="4.5368505" class="TextStyle0" fill="#000000" opacity="1" transform="matrix(1,0,0,-1,0,6.8747244)">verifyTransaction()</text>
     </g>
    </g>
    <g transform="matrix(1,0,0,1,517.3228,299.40945)" v:mID="27">
     <title>Shape27</title>
     <g transform="matrix(1,0,0,1,1.4173222,0.70866156)">
      <text x="9.896378" y="4.5368505" class="TextStyle0" fill="#000000" opacity="1" transform="matrix(1,0,0,-1,0,6.8747244)">verifyBlock()</text>
     </g>
    </g>
    <g transform="matrix(1,0,0,1,-24.803148,289.8425)" v:mID="28">
     <title>Dynamic connector.28</title>
     <path d="M354.330718994,177.874008179 L354.330718994,177.874008179 Z" stroke="#000000" stroke-width="1.4173229" stroke-linecap="round" fill="none"/>
    </g>
    <g transform="matrix(1,0,0,1,-121.88976,289.8425)" v:mID="29">
     <title>Dynamic connector.29</title>
     <path d="M445.657348633,174.994018555 L451.417327881,177.874008179 L445.657348633,180.753997803 M445.657348633,174.994018555 C446.809356689,176.722000122 446.809356689,179.026016235 445.657348633,180.753997803 " stroke="#000000" stroke-width="0" fill="#000000"  fill-rule="evenodd" transform="matrix(1,0,0,1,0,0)"/>
     <path d="M354.330718994,177.874008179 L451.417327881,177.874008179 " stroke="#000000" stroke-width="1.4173229" stroke-linecap="round" fill="none"/>
    </g>
    <g transform="matrix(1,0,0,1,-121.88976,289.8425)" v:mID="30">
     <title>Dynamic connector.30</title>
     <path d="M348.570709229,174.994018555 L354.330718994,177.874008179 L348.570709229,180.753997803 M348.570709229,174.994018555 C349.722717285,176.722000122 349.722717285,179.026016235 348.570709229,180.753997803 " stroke="#000000" stroke-width="0" fill="#000000"  fill-rule="evenodd" transform="matrix(-1,0,0,-1,708.66144,355.74802)"/>
     <path d="M451.417327881,177.874008179 L354.330718994,177.874008179 " stroke="#000000" stroke-width="1.4173229" stroke-linecap="round" fill="none"/>
    </g>
    <g transform="matrix(1,0,0,1,-121.88976,215.43307)" v:mID="31">
     <title>Dynamic connector.31</title>
     <path d="M445.657348633,174.994018555 L451.417327881,177.874008179 L445.657348633,180.753997803 M445.657348633,174.994018555 C446.809356689,176.722000122 446.809356689,179.026016235 445.657348633,180.753997803 " stroke="#000000" stroke-width="0" fill="#000000"  fill-rule="evenodd" transform="matrix(1,0,0,1,0,0)"/>
     <path d="M354.330718994,177.874008179 L451.417327881,177.874008179 " stroke="#000000" stroke-width="1.4173229" stroke-linecap="round" fill="none"/>
    </g>
    <g transform="matrix(1,0,0,1,-121.88976,215.43307)" v:mID="32">
     <title>Dynamic connector.32</title>
     <path d="M348.570709229,174.994018555 L354.330718994,177.874008179 L348.570709229,180.753997803 M348.570709229,174.994018555 C349.722717285,176.722000122 349.722717285,179.026016235 348.570709229,180.753997803 " stroke="#000000" stroke-width="0" fill="#000000"  fill-rule="evenodd" transform="matrix(-1,0,0,-1,708.66144,355.74802)"/>
     <path d="M451.417327881,177.874008179 L354.330718994,177.874008179 " stroke="#000000" stroke-width="1.4173229" stroke-linecap="round" fill="none"/>
    </g>
   </g>
  </g>
 </g>
 <style type="text/css"><![CDATA[ .TextStyle0 {font-family:Times New Roman;font-size:7.5614176px;} ]]></style>
</svg>
