<?xml version="1.0" encoding="UTF-8" standalone="yes"?>
<svg xmlns="http://www.w3.org/2000/svg" xmlns:v="http://schemas.microsoft.com/visio/2003/SVGExtensions/" xml:space="preserve" xmlns:xlink="http://www.w3.org/1999/xlink" width="28.385826in" height="20.078741in" viewBox="0 0 2043.7795 1445.6693">
 <v:documentProperties>
  <v:userDefs>
   <v:ud v:nameU="msvNoAutoConnect" v:val="1"/>
  </v:userDefs>
 </v:documentProperties>
 <g id="SFixTitle"/>
 <g id="SContent">
  <g>
   <g transform="matrix(1,0,0,-1,0,1445.6693)">
    <g transform="matrix(1,0,0,1,910.62994,995.6693)" v:mID="1">
     <title>Shape1</title>
     <path d="M0,35.433071136 L77.95275116,35.433071136 L77.95275116,35.433071136 L77.95275116,0 L77.95275116,0 L0,0 L0,0 L0,35.433071136 Z" stroke="#000000" stroke-width="1.4173229" stroke-linecap="round" fill="#FFFFFF"  fill-rule="evenodd"/>
     <g transform="matrix(1,0,0,1,1.4173203,1.4173241)">
      <text x="26.567343" y="4.949291" class="TextStyle0" fill="#000000" opacity="1" transform="matrix(1,0,0,-1,0,18.773857)">Wallet</text>
     </g>
    </g>
    <g transform="matrix(1,0,0,1,1085.6694,995.6693)" v:mID="2">
     <title>Shape2</title>
     <path d="M0,35.433071136 L77.95275116,35.433071136 L77.95275116,35.433071136 L77.95275116,0 L77.95275116,0 L0,0 L0,0 L0,35.433071136 Z" stroke="#000000" stroke-width="1.4173229" stroke-linecap="round" fill="#FFFFFF"  fill-rule="evenodd"/>
     <g transform="matrix(1,0,0,1,1.4173203,1.4173241)">
      <text x="26.563314" y="4.949291" class="TextStyle0" fill="#000000" opacity="1" transform="matrix(1,0,0,-1,0,18.773857)">Node1</text>
     </g>
    </g>
    <g transform="matrix(1,0,0,1,1266.3779,995.6693)" v:mID="3">
     <title>Shape3</title>
     <path d="M0,35.433071136 L77.95275116,35.433071136 L77.95275116,35.433071136 L77.95275116,0 L77.95275116,0 L0,0 L0,0 L0,35.433071136 Z" stroke="#000000" stroke-width="1.4173229" stroke-linecap="round" fill="#FFFFFF"  fill-rule="evenodd"/>
     <g transform="matrix(1,0,0,1,1.4173203,1.4173241)">
      <text x="26.563314" y="4.949291" class="TextStyle0" fill="#000000" opacity="1" transform="matrix(1,0,0,-1,0,18.773857)">Node2</text>
     </g>
    </g>
    <g transform="matrix(1,0,0,1,141.7323,1012.6772)" v:mID="4">
     <title>Dynamic connector.4</title>
     <g transform="matrix(1,0,0,1,0,0)" v:mID="4">
      <title>Dynamic connector.4</title>
      <path d="M1118.885742188,-2.171338797 L1124.645751953,0.708661437 L1118.885742188,3.588661671 M1118.885742188,-2.171338797 C1120.037597656,-0.443338633 1120.037597656,1.860661507 1118.885742188,3.588661671 " stroke="#000000" stroke-width="0" fill="#000000"  fill-rule="evenodd" opacity="0" transform="matrix(1,0,0,1,0,0)"/>
      <path d="M1021.889770508,0.708661437 L1124.645751953,0.708661437 " stroke="#000000" stroke-width="1.4173229" stroke-linecap="round" fill="none" stroke-opacity="0"/>
     </g>
     <path d="M1118.885742188,-2.171338797 L1124.645751953,0.708661437 L1118.885742188,3.588661671 M1118.885742188,-2.171338797 C1120.037597656,-0.443338633 1120.037597656,1.860661507 1118.885742188,3.588661671 " stroke="#000000" stroke-width="0" fill="#000000"  fill-rule="evenodd" transform="matrix(1,0,0,1,0,0)"/>
     <path d="M1021.889770508,0.708661437 L1124.645751953,0.708661437 " stroke="#000000" stroke-width="1.4173229" stroke-linecap="round" fill="none"/>
    </g>
    <g transform="matrix(1,0,0,1,910.62994,1070.0787)" v:mID="5">
     <title>Shape5</title>
     <path d="M0,35.433071136 L77.95275116,35.433071136 L77.95275116,35.433071136 L77.95275116,0 L77.95275116,0 L0,0 L0,0 L0,35.433071136 Z" stroke="#000000" stroke-width="1.4173229" stroke-linecap="round" fill="#FFFFFF"  fill-rule="evenodd"/>
     <g transform="matrix(1,0,0,1,1.4173203,1.4173241)">
      <text x="26.567343" y="4.949291" class="TextStyle0" fill="#000000" opacity="1" transform="matrix(1,0,0,-1,0,18.773857)">Wallet</text>
     </g>
    </g>
    <g transform="matrix(1,0,0,1,1085.6694,1070.0787)" v:mID="6">
     <title>Shape6</title>
     <path d="M0,35.433071136 L77.95275116,35.433071136 L77.95275116,35.433071136 L77.95275116,0 L77.95275116,0 L0,0 L0,0 L0,35.433071136 Z" stroke="#000000" stroke-width="1.4173229" stroke-linecap="round" fill="#FFFFFF"  fill-rule="evenodd"/>
     <g transform="matrix(1,0,0,1,1.4173203,1.4173241)">
      <text x="9.956926" y="4.949291" class="TextStyle0" fill="#000000" opacity="1" transform="matrix(1,0,0,-1,0,18.773857)">Connected Node</text>
     </g>
    </g>
    <g transform="matrix(1,0,0,1,988.5827,1020.4724)" v:mID="7">
     <title>Shape7</title>
     <g transform="matrix(1,0,0,1,1.4173241,0.3543315)">
      <text x="12.972952" y="4.949291" class="TextStyle0" fill="#000000" opacity="1" transform="matrix(1,0,0,-1,0,7.4352756)">submitTransaction()</text>
     </g>
    </g>
    <g transform="matrix(1,0,0,1,1082.1261,1039.6063)" v:mID="8">
     <title>Shape8</title>
     <g transform="matrix(1,0,0,1,1.4173241,0.3543315)">
      <text x="9.03951" y="4.949291" class="TextStyle0" fill="#000000" opacity="1" transform="matrix(1,0,0,-1,0,7.4352756)">verifyTransaction()</text>
     </g>
    </g>
    <g transform="matrix(1,0,0,1,1160.0786,1020.4724)" v:mID="9">
     <title>Shape9</title>
     <g transform="matrix(1,0,0,1,1.4173203,0.3543315)">
      <text x="13.714414" y="4.949291" class="TextStyle0" fill="#000000" opacity="1" transform="matrix(1,0,0,-1,0,7.4352756)">broadcastTransaction()</text>
     </g>
    </g>
    <g transform="matrix(1,0,0,1,1266.3779,953.1496)" v:mID="10">
     <title>Shape10</title>
     <path d="M0,35.433071136 L77.95275116,35.433071136 L77.95275116,35.433071136 L77.95275116,0 L77.95275116,0 L0,0 L0,0 L0,35.433071136 Z" stroke="#000000" stroke-width="1.4173229" stroke-linecap="round" fill="#FFFFFF"  fill-rule="evenodd"/>
     <g transform="matrix(1,0,0,1,1.4173203,1.4173241)">
      <text x="26.563314" y="4.949291" class="TextStyle0" fill="#000000" opacity="1" transform="matrix(1,0,0,-1,0,18.773857)">Node3</text>
     </g>
    </g>
    <g transform="matrix(1,0,0,1,141.7323,970.86615)" v:mID="11">
     <title>Dynamic connector.11</title>
     <path d="M1118.885742188,-2.880000114 L1124.645751953,0 L1118.885742188,2.880000114 M1118.885742188,-2.879999876 C1120.037597656,-1.15200007 1120.037597656,1.15200007 1118.885742188,2.879999876 " stroke="#000000" stroke-width="0" fill="#000000"  fill-rule="evenodd" transform="matrix(1,0,0,1,0,0)"/>
     <path d="M1021.889770508,42.519687653 L1073.267700195,42.519687653 L1073.267700195,42.519687653 L1073.267700195,0 L1073.267700195,0 L1124.645751953,0 " stroke="#000000" stroke-width="1.4173229" stroke-linecap="round" fill="none"/>
    </g>
    <g transform="matrix(1,0,0,1,912.04724,875.55115)" v:mID="12">
     <title>Shape12</title>
     <path d="M0,35.433071136 L77.95275116,35.433071136 L77.95275116,35.433071136 L77.95275116,0 L77.95275116,0 L0,0 L0,0 L0,35.433071136 Z" stroke="#000000" stroke-width="1.4173229" stroke-linecap="round" fill="#FFFFFF"  fill-rule="evenodd"/>
     <g transform="matrix(1,0,0,1,1.4173203,1.4173241)">
      <text x="27.479626" y="4.949291" class="TextStyle0" fill="#000000" opacity="1" transform="matrix(1,0,0,-1,0,18.773857)">Miner</text>
     </g>
    </g>
    <g transform="matrix(1,0,0,1,1082.1261,875.55115)" v:mID="13">
     <title>Shape13</title>
     <path d="M0,35.433071136 L77.95275116,35.433071136 L77.95275116,35.433071136 L77.95275116,0 L77.95275116,0 L0,0 L0,0 L0,35.433071136 Z" stroke="#000000" stroke-width="1.4173229" stroke-linecap="round" fill="#FFFFFF"  fill-rule="evenodd"/>
     <g transform="matrix(1,0,0,1,1.4173203,1.4173241)">
      <text x="26.563314" y="4.949291" class="TextStyle0" fill="#000000" opacity="1" transform="matrix(1,0,0,-1,0,18.773857)">Node1</text>
     </g>
    </g>
    <g transform="matrix(1,0,0,1,-31.889763,892.5591)" v:mID="14">
     <title>Dynamic connector.14</title>
     <path d="M1108.255737305,-2.171338797 L1114.01574707,0.708661437 L1108.255737305,3.588661671 M1108.255737305,-2.171338797 C1109.407836914,-0.443338633 1109.407836914,1.860661507 1108.255737305,3.588661671 " stroke="#000000" stroke-width="0" fill="#000000"  fill-rule="evenodd" transform="matrix(1,0,0,1,0,0)"/>
     <path d="M1021.889770508,0.708661437 L1114.01574707,0.708661437 " stroke="#000000" stroke-width="1.4173229" stroke-linecap="round" fill="none"/>
    </g>
    <g transform="matrix(1,0,0,1,919.13385,914.1732)" v:mID="15">
     <title>Shape15</title>
     <g transform="matrix(1,0,0,1,1.4173222,1.4173231)">
      <text x="9.395259" y="0" class="TextStyle0" fill="#000000" opacity="1" transform="matrix(1,0,0,-1,0,11.687244)">buildBlock()</text>
      <text x="9.626854" y="9.898582" class="TextStyle0" fill="#000000" opacity="1" transform="matrix(1,0,0,-1,0,11.687244)">mineBlock()</text>
     </g>
    </g>
    <g transform="matrix(1,0,0,1,988.5827,900.3544)" v:mID="16">
     <title>Shape16</title>
     <g transform="matrix(1,0,0,1,1.4173241,0.3543315)">
      <text x="12.700729" y="4.949291" class="TextStyle0" fill="#000000" opacity="1" transform="matrix(1,0,0,-1,0,7.4352756)">broadcastBlock()</text>
     </g>
    </g>
    <g transform="matrix(1,0,0,1,1089.2126,919.4882)" v:mID="17">
     <title>Shape17</title>
     <g transform="matrix(1,0,0,1,1.4173222,0.3543315)">
      <text x="8.0258255" y="4.949291" class="TextStyle0" fill="#000000" opacity="1" transform="matrix(1,0,0,-1,0,7.4352756)">verifyBlock()</text>
     </g>
    </g>
    <g transform="matrix(1,0,0,1,141.7323,892.5591)" v:mID="18">
     <title>Dynamic connector.18</title>
     <path d="M1118.885742188,-2.171338797 L1124.645751953,0.708661437 L1118.885742188,3.588661671 M1118.885742188,-2.171338797 C1120.037597656,-0.443338633 1120.037597656,1.860661507 1118.885742188,3.588661671 " stroke="#000000" stroke-width="0" fill="#000000"  fill-rule="evenodd" transform="matrix(1,0,0,1,0,0)"/>
     <path d="M1021.889770508,0.708661437 L1124.645751953,0.708661437 " stroke="#000000" stroke-width="1.4173229" stroke-linecap="round" fill="none"/>
    </g>
    <g transform="matrix(1,0,0,1,138.18896,850.74805)" v:mID="20">
     <title>Dynamic connector.20</title>
     <path d="M1122.428955078,-2.880000114 L1128.188964844,0 L1122.428955078,2.880000114 M1122.428955078,-2.879999876 C1123.580932617,-1.15200007 1123.580932617,1.15200007 1122.428955078,2.879999876 " stroke="#000000" stroke-width="0" fill="#000000"  fill-rule="evenodd" transform="matrix(1,0,0,1,0,0)"/>
     <path d="M1021.889770508,42.519687653 L1075.039428711,42.519687653 L1075.039428711,42.519687653 L1075.039428711,0 L1075.039428711,0 L1128.188964844,0 " stroke="#000000" stroke-width="1.4173229" stroke-linecap="round" fill="none"/>
    </g>
    <g transform="matrix(1,0,0,1,1266.3779,875.55115)" v:mID="19">
     <title>Shape19</title>
     <path d="M0,35.433071136 L77.95275116,35.433071136 L77.95275116,35.433071136 L77.95275116,0 L77.95275116,0 L0,0 L0,0 L0,35.433071136 Z" stroke="#000000" stroke-width="1.4173229" stroke-linecap="round" fill="#FFFFFF"  fill-rule="evenodd"/>
     <g transform="matrix(1,0,0,1,1.4173203,1.4173241)">
      <text x="26.563314" y="4.949291" class="TextStyle0" fill="#000000" opacity="1" transform="matrix(1,0,0,-1,0,18.773857)">Node2</text>
     </g>
    </g>
    <g transform="matrix(1,0,0,1,1170.7086,900.3544)" v:mID="22">
     <title>Shape22</title>
     <g transform="matrix(1,0,0,1,1.4173241,0.3543315)">
      <text x="12.700729" y="4.949291" class="TextStyle0" fill="#000000" opacity="1" transform="matrix(1,0,0,-1,0,7.4352756)">broadcastBlock()</text>
     </g>
    </g>
    <g transform="matrix(1,0,0,1,1266.3779,833.0315)" v:mID="21">
     <title>Shape21</title>
     <path d="M0,35.433071136 L77.95275116,35.433071136 L77.95275116,35.433071136 L77.95275116,0 L77.95275116,0 L0,0 L0,0 L0,35.433071136 Z" stroke="#000000" stroke-width="1.4173229" stroke-linecap="round" fill="#FFFFFF"  fill-rule="evenodd"/>
     <g transform="matrix(1,0,0,1,1.4173203,1.4173241)">
      <text x="26.563314" y="4.949291" class="TextStyle0" fill="#000000" opacity="1" transform="matrix(1,0,0,-1,0,18.773857)">Node3</text>
     </g>
    </g>
    <g transform="matrix(1,0,0,1,908.5039,1116.1417)" v:mID="23">
     <title>Shape23</title>
     <g transform="matrix(1,0,0,1,1.4173241,0.3543315)">
      <text x="10.408943" y="4.949291" class="TextStyle0" fill="#000000" opacity="1" transform="matrix(1,0,0,-1,0,7.4352756)">buildTransaction()</text>
     </g>
    </g>
    <g transform="matrix(1,0,0,1,988.5827,1070.0787)" v:mID="24">
     <title>Shape24</title>
     <g transform="matrix(1,0,0,1,1.4173241,0.3543315)">
      <text x="12.972952" y="4.949291" class="TextStyle0" fill="#000000" opacity="1" transform="matrix(1,0,0,-1,0,7.4352756)">submitTransaction()</text>
     </g>
    </g>
    <g transform="matrix(1,0,0,1,997.0866,1094.882)" v:mID="25">
     <title>Shape25</title>
     <g transform="matrix(1,0,0,1,1.4173241,0.3543315)">
      <text x="11.778376" y="4.949291" class="TextStyle0" fill="#000000" opacity="1" transform="matrix(1,0,0,-1,0,7.4352756)">updateMyUtxos()</text>
     </g>
    </g>
    <g transform="matrix(1,0,0,1,1266.378,1039.6063)" v:mID="26">
     <title>Shape26</title>
     <g transform="matrix(1,0,0,1,1.4173241,0.3543315)">
      <text x="9.03951" y="4.949291" class="TextStyle0" fill="#000000" opacity="1" transform="matrix(1,0,0,-1,0,7.4352756)">verifyTransaction()</text>
     </g>
    </g>
    <g transform="matrix(1,0,0,1,1273.4645,919.4882)" v:mID="27">
     <title>Shape27</title>
     <g transform="matrix(1,0,0,1,1.4173222,0.3543315)">
      <text x="8.0258255" y="4.949291" class="TextStyle0" fill="#000000" opacity="1" transform="matrix(1,0,0,-1,0,7.4352756)">verifyBlock()</text>
     </g>
    </g>
    <g transform="matrix(1,0,0,1,63.779526,1087.0865)" v:mID="28">
     <title>Dynamic connector.28</title>
     <path d="M1021.889770508,0.708661437 L1021.889770508,0.708661437 Z" stroke="#000000" stroke-width="1.4173229" stroke-linecap="round" fill="none"/>
    </g>
    <g transform="matrix(1,0,0,1,-33.307083,1087.0865)" v:mID="29">
     <title>Dynamic connector.29</title>
     <path d="M1113.216430664,-2.171338797 L1118.97644043,0.708661437 L1113.216430664,3.588661671 M1113.216308594,-2.171338797 C1114.368408203,-0.443338633 1114.368408203,1.860661507 1113.216308594,3.588661671 " stroke="#000000" stroke-width="0" fill="#000000"  fill-rule="evenodd" transform="matrix(1,0,0,1,0,0)"/>
     <path d="M1021.889770508,0.708661437 L1118.97644043,0.708661437 " stroke="#000000" stroke-width="1.4173229" stroke-linecap="round" fill="none"/>
    </g>
    <g transform="matrix(1,0,0,1,-33.307083,1087.0865)" v:mID="30">
     <title>Dynamic connector.30</title>
     <path d="M1016.129760742,-2.171338797 L1021.889770508,0.708661437 L1016.129760742,3.588661671 M1016.129760742,-2.171338797 C1017.281738281,-0.443338633 1017.281738281,1.860661507 1016.129760742,3.588661671 " stroke="#000000" stroke-width="0" fill="#000000"  fill-rule="evenodd" transform="matrix(-1,0,0,-1,2043.7795,1.4173229)"/>
     <path d="M1118.97644043,0.708661437 L1021.889770508,0.708661437 " stroke="#000000" stroke-width="1.4173229" stroke-linecap="round" fill="none"/>
    </g>
    <g transform="matrix(1,0,0,1,-33.307083,1012.6772)" v:mID="31">
     <title>Dynamic connector.31</title>
     <path d="M1113.216430664,-2.171338797 L1118.97644043,0.708661437 L1113.216430664,3.588661671 M1113.216308594,-2.171338797 C1114.368408203,-0.443338633 1114.368408203,1.860661507 1113.216308594,3.588661671 " stroke="#000000" stroke-width="0" fill="#000000"  fill-rule="evenodd" transform="matrix(1,0,0,1,0,0)"/>
     <path d="M1021.889770508,0.708661437 L1118.97644043,0.708661437 " stroke="#000000" stroke-width="1.4173229" stroke-linecap="round" fill="none"/>
    </g>
    <g transform="matrix(1,0,0,1,-33.307083,1012.6772)" v:mID="32">
     <title>Dynamic connector.32</title>
     <path d="M1016.129760742,-2.171338797 L1021.889770508,0.708661437 L1016.129760742,3.588661671 M1016.129760742,-2.171338797 C1017.281738281,-0.443338633 1017.281738281,1.860661507 1016.129760742,3.588661671 " stroke="#000000" stroke-width="0" fill="#000000"  fill-rule="evenodd" transform="matrix(-1,0,0,-1,2043.7795,1.4173229)"/>
     <path d="M1118.97644043,0.708661437 L1021.889770508,0.708661437 " stroke="#000000" stroke-width="1.4173229" stroke-linecap="round" fill="none"/>
    </g>
   </g>
  </g>
 </g>
 <style type="text/css"><![CDATA[ .TextStyle0 {font-family:Times New Roman;font-size:8.248819px;} ]]></style>
</svg>
