<?xml version="1.0" encoding="UTF-8" standalone="yes"?>
<svg xmlns="http://www.w3.org/2000/svg" xmlns:v="http://schemas.microsoft.com/visio/2003/SVGExtensions/" xml:space="preserve" xmlns:xlink="http://www.w3.org/1999/xlink" width="8.858268in" height="7.3818893in" viewBox="0 0 637.7953 531.49603">
 <v:documentProperties>
  <v:userDefs>
   <v:ud v:nameU="msvNoAutoConnect" v:val="1"/>
  </v:userDefs>
 </v:documentProperties>
 <g id="SFixTitle"/>
 <g id="SContent">
  <g>
   <g transform="matrix(1,0,0,-1,0,531.49603)">
    <g transform="matrix(1,0,0,1,99.921265,375.59055)" v:mID="1">
     <title>Shape1</title>
     <path d="M0,35.433071136 L77.95275116,35.433071136 L77.95275116,35.433071136 L77.95275116,0 L77.95275116,0 L0,0 L0,0 L0,35.433071136 Z" stroke="#000000" stroke-width="1.4173229" stroke-linecap="round" fill="#FFFFFF"  fill-rule="evenodd"/>
     <g transform="matrix(1,0,0,1,1.4173203,1.4173241)">
      <text x="27.483316" y="4.5368505" class="TextStyle0" fill="#000000" opacity="1" transform="matrix(1,0,0,-1,0,18.567636)">Wallet</text>
     </g>
    </g>
    <g transform="matrix(1,0,0,1,274.96063,375.59055)" v:mID="2">
     <title>Shape2</title>
     <path d="M0,35.433071136 L77.95275116,35.433071136 L77.95275116,35.433071136 L77.95275116,0 L77.95275116,0 L0,0 L0,0 L0,35.433071136 Z" stroke="#000000" stroke-width="1.4173229" stroke-linecap="round" fill="#FFFFFF"  fill-rule="evenodd"/>
     <g transform="matrix(1,0,0,1,1.4173203,1.4173241)">
      <text x="27.479626" y="4.5368505" class="TextStyle0" fill="#000000" opacity="1" transform="matrix(1,0,0,-1,0,18.567636)">Node1</text>
     </g>
    </g>
    <g transform="matrix(1,0,0,1,455.66928,375.59055)" v:mID="3">
     <title>Shape3</title>
     <path d="M0,35.433071136 L77.95275116,35.433071136 L77.95275116,35.433071136 L77.95275116,0 L77.95275116,0 L0,0 L0,0 L0,35.433071136 Z" stroke="#000000" stroke-width="1.4173229" stroke-linecap="round" fill="#FFFFFF"  fill-rule="evenodd"/>
     <g transform="matrix(1,0,0,1,1.4173203,1.4173241)">
      <text x="27.479626" y="4.5368505" class="TextStyle0" fill="#000000" opacity="1" transform="matrix(1,0,0,-1,0,18.567636)">Node2</text>
     </g>
    </g>
    <g transform="matrix(1,0,0,1,-284.8819,215.43307)" v:mID="4">
     <title>Dynamic connector.4</title>
     <g transform="matrix(1,0,0,1,0,0)" v:mID="4">
      <title>Dynamic connector.4</title>
      <path d="M734.791137695,174.994018555 L740.551147461,177.874008179 L734.791137695,180.753997803 M734.791137695,174.994018555 C735.94317627,176.722000122 735.94317627,179.026016235 734.791137695,180.753997803 " stroke="#000000" stroke-width="0" fill="#000000"  fill-rule="evenodd" opacity="0" transform="matrix(1,0,0,1,0,0)"/>
      <path d="M637.795288086,177.874008179 L740.551147461,177.874008179 " stroke="#000000" stroke-width="1.4173229" stroke-linecap="round" fill="none" stroke-opacity="0"/>
     </g>
     <path d="M734.791137695,174.994018555 L740.551147461,177.874008179 L734.791137695,180.753997803 M734.791137695,174.994018555 C735.94317627,176.722000122 735.94317627,179.026016235 734.791137695,180.753997803 " stroke="#000000" stroke-width="0" fill="#000000"  fill-rule="evenodd" transform="matrix(1,0,0,1,0,0)"/>
     <path d="M637.795288086,177.874008179 L740.551147461,177.874008179 " stroke="#000000" stroke-width="1.4173229" stroke-linecap="round" fill="none"/>
    </g>
    <g transform="matrix(1,0,0,1,99.921265,450)" v:mID="5">
     <title>Shape5</title>
     <path d="M0,35.433071136 L77.95275116,35.433071136 L77.95275116,35.433071136 L77.95275116,0 L77.95275116,0 L0,0 L0,0 L0,35.433071136 Z" stroke="#000000" stroke-width="1.4173229" stroke-linecap="round" fill="#FFFFFF"  fill-rule="evenodd"/>
     <g transform="matrix(1,0,0,1,1.4173203,1.4173241)">
      <text x="27.483316" y="4.5368505" class="TextStyle0" fill="#000000" opacity="1" transform="matrix(1,0,0,-1,0,18.567636)">Wallet</text>
     </g>
    </g>
    <g transform="matrix(1,0,0,1,274.96063,450)" v:mID="6">
     <title>Shape6</title>
     <path d="M0,35.433071136 L77.95275116,35.433071136 L77.95275116,35.433071136 L77.95275116,0 L77.95275116,0 L0,0 L0,0 L0,35.433071136 Z" stroke="#000000" stroke-width="1.4173229" stroke-linecap="round" fill="#FFFFFF"  fill-rule="evenodd"/>
     <g transform="matrix(1,0,0,1,1.4173203,1.4173241)">
      <text x="12.257105" y="4.5368505" class="TextStyle0" fill="#000000" opacity="1" transform="matrix(1,0,0,-1,0,18.567636)">Connected Node</text>
     </g>
    </g>
    <g transform="matrix(1,0,0,1,177.87402,400.39368)" v:mID="7">
     <title>Shape7</title>
     <g transform="matrix(1,0,0,1,1.4173241,0.70866156)">
      <text x="15.759984" y="4.5368505" class="TextStyle0" fill="#000000" opacity="1" transform="matrix(1,0,0,-1,0,6.8747244)">submitTransaction()</text>
     </g>
    </g>
    <g transform="matrix(1,0,0,1,271.41733,419.52753)" v:mID="8">
     <title>Shape8</title>
     <g transform="matrix(1,0,0,1,1.4173241,0.70866156)">
      <text x="11.711415" y="4.5368505" class="TextStyle0" fill="#000000" opacity="1" transform="matrix(1,0,0,-1,0,6.8747244)">verifyTransaction()</text>
     </g>
    </g>
    <g transform="matrix(1,0,0,1,349.37012,400.39368)" v:mID="9">
     <title>Shape9</title>
     <g transform="matrix(1,0,0,1,1.4173203,0.70866156)">
      <text x="16.882568" y="4.5368505" class="TextStyle0" fill="#000000" opacity="1" transform="matrix(1,0,0,-1,0,6.8747244)">broadcastTransaction()</text>
     </g>
    </g>
    <g transform="matrix(1,0,0,1,455.66928,333.0709)" v:mID="10">
     <title>Shape10</title>
     <path d="M0,35.433071136 L77.95275116,35.433071136 L77.95275116,35.433071136 L77.95275116,0 L77.95275116,0 L0,0 L0,0 L0,35.433071136 Z" stroke="#000000" stroke-width="1.4173229" stroke-linecap="round" fill="#FFFFFF"  fill-rule="evenodd"/>
     <g transform="matrix(1,0,0,1,1.4173203,1.4173241)">
      <text x="27.479626" y="4.5368505" class="TextStyle0" fill="#000000" opacity="1" transform="matrix(1,0,0,-1,0,18.567636)">Node3</text>
     </g>
    </g>
    <g transform="matrix(1,0,0,1,-284.8819,173.62206)" v:mID="11">
     <title>Dynamic connector.11</title>
     <path d="M734.791137695,174.285354614 L740.551147461,177.165359497 L734.791137695,180.045349121 M734.791137695,174.285354614 C735.94317627,176.01335144 735.94317627,178.317352295 734.791137695,180.045349121 " stroke="#000000" stroke-width="0" fill="#000000"  fill-rule="evenodd" transform="matrix(1,0,0,1,0,0)"/>
     <path d="M637.795288086,219.685043335 L689.173278809,219.685043335 L689.173278809,219.685043335 L689.173278809,177.165359497 L689.173278809,177.165359497 L740.551147461,177.165359497 " stroke="#000000" stroke-width="1.4173229" stroke-linecap="round" fill="none"/>
    </g>
    <g transform="matrix(1,0,0,1,101.33858,255.47243)" v:mID="12">
     <title>Shape12</title>
     <path d="M0,35.433071136 L77.95275116,35.433071136 L77.95275116,35.433071136 L77.95275116,0 L77.95275116,0 L0,0 L0,0 L0,35.433071136 Z" stroke="#000000" stroke-width="1.4173229" stroke-linecap="round" fill="#FFFFFF"  fill-rule="evenodd"/>
     <g transform="matrix(1,0,0,1,1.4173203,1.4173241)">
      <text x="28.319578" y="4.5368505" class="TextStyle0" fill="#000000" opacity="1" transform="matrix(1,0,0,-1,0,18.567636)">Miner</text>
     </g>
    </g>
    <g transform="matrix(1,0,0,1,271.41733,255.47243)" v:mID="13">
     <title>Shape13</title>
     <path d="M0,35.433071136 L77.95275116,35.433071136 L77.95275116,35.433071136 L77.95275116,0 L77.95275116,0 L0,0 L0,0 L0,35.433071136 Z" stroke="#000000" stroke-width="1.4173229" stroke-linecap="round" fill="#FFFFFF"  fill-rule="evenodd"/>
     <g transform="matrix(1,0,0,1,1.4173203,1.4173241)">
      <text x="27.479626" y="4.5368505" class="TextStyle0" fill="#000000" opacity="1" transform="matrix(1,0,0,-1,0,18.567636)">Node1</text>
     </g>
    </g>
    <g transform="matrix(1,0,0,1,-458.50394,95.31496)" v:mID="14">
     <title>Dynamic connector.14</title>
     <path d="M724.161254883,174.994018555 L729.921264648,177.874008179 L724.161254883,180.753997803 M724.161254883,174.994018555 C725.313232422,176.722000122 725.313232422,179.026016235 724.161254883,180.753997803 " stroke="#000000" stroke-width="0" fill="#000000"  fill-rule="evenodd" transform="matrix(1,0,0,1,0,0)"/>
     <path d="M637.795288086,177.874008179 L729.921264648,177.874008179 " stroke="#000000" stroke-width="1.4173229" stroke-linecap="round" fill="none"/>
    </g>
    <g transform="matrix(1,0,0,1,108.42519,294.0945)" v:mID="15">
     <title>Shape15</title>
     <g transform="matrix(1,0,0,1,1.4173222,1.4173231)">
      <text x="11.15169" y="0" class="TextStyle0" fill="#000000" opacity="1" transform="matrix(1,0,0,-1,0,11.481024)">buildBlock()</text>
      <text x="11.363985" y="9.073701" class="TextStyle0" fill="#000000" opacity="1" transform="matrix(1,0,0,-1,0,11.481024)">mineBlock()</text>
     </g>
    </g>
    <g transform="matrix(1,0,0,1,177.87402,280.27557)" v:mID="16">
     <title>Shape16</title>
     <g transform="matrix(1,0,0,1,1.4173241,0.70866156)">
      <text x="15.067533" y="4.5368505" class="TextStyle0" fill="#000000" opacity="1" transform="matrix(1,0,0,-1,0,6.8747244)">broadcastBlock()</text>
     </g>
    </g>
    <g transform="matrix(1,0,0,1,278.50394,299.40945)" v:mID="17">
     <title>Shape17</title>
     <g transform="matrix(1,0,0,1,1.4173222,0.70866156)">
      <text x="9.896378" y="4.5368505" class="TextStyle0" fill="#000000" opacity="1" transform="matrix(1,0,0,-1,0,6.8747244)">verifyBlock()</text>
     </g>
    </g>
    <g transform="matrix(1,0,0,1,-284.8819,95.31496)" v:mID="18">
     <title>Dynamic connector.18</title>
     <path d="M734.791137695,174.994018555 L740.551147461,177.874008179 L734.791137695,180.753997803 M734.791137695,174.994018555 C735.94317627,176.722000122 735.94317627,179.026016235 734.791137695,180.753997803 " stroke="#000000" stroke-width="0" fill="#000000"  fill-rule="evenodd" transform="matrix(1,0,0,1,0,0)"/>
     <path d="M637.795288086,177.874008179 L740.551147461,177.874008179 " stroke="#000000" stroke-width="1.4173229" stroke-linecap="round" fill="none"/>
    </g>
    <g transform="matrix(1,0,0,1,-288.4252,53.503937)" v:mID="20">
     <title>Dynamic connector.20</title>
     <path d="M738.334472656,174.285354614 L744.094482422,177.165359497 L738.334472656,180.045349121 M738.334472656,174.285354614 C739.486450195,176.01335144 739.486450195,178.317352295 738.334472656,180.045349121 " stroke="#000000" stroke-width="0" fill="#000000"  fill-rule="evenodd" transform="matrix(1,0,0,1,0,0)"/>
     <path d="M637.795288086,219.685043335 L690.944885254,219.685043335 L690.944885254,219.685043335 L690.944885254,177.165359497 L690.944885254,177.165359497 L744.094482422,177.165359497 " stroke="#000000" stroke-width="1.4173229" stroke-linecap="round" fill="none"/>
    </g>
    <g transform="matrix(1,0,0,1,455.66928,255.47243)" v:mID="19">
     <title>Shape19</title>
     <path d="M0,35.433071136 L77.95275116,35.433071136 L77.95275116,35.433071136 L77.95275116,0 L77.95275116,0 L0,0 L0,0 L0,35.433071136 Z" stroke="#000000" stroke-width="1.4173229" stroke-linecap="round" fill="#FFFFFF"  fill-rule="evenodd"/>
     <g transform="matrix(1,0,0,1,1.4173203,1.4173241)">
      <text x="27.479626" y="4.5368505" class="TextStyle0" fill="#000000" opacity="1" transform="matrix(1,0,0,-1,0,18.567636)">Node2</text>
     </g>
    </g>
    <g transform="matrix(1,0,0,1,360.00003,280.27557)" v:mID="22">
     <title>Shape22</title>
     <g transform="matrix(1,0,0,1,1.4173241,0.70866156)">
      <text x="15.067533" y="4.5368505" class="TextStyle0" fill="#000000" opacity="1" transform="matrix(1,0,0,-1,0,6.8747244)">broadcastBlock()</text>
     </g>
    </g>
    <g transform="matrix(1,0,0,1,455.66928,212.95274)" v:mID="21">
     <title>Shape21</title>
     <path d="M0,35.433071136 L77.95275116,35.433071136 L77.95275116,35.433071136 L77.95275116,0 L77.95275116,0 L0,0 L0,0 L0,35.433071136 Z" stroke="#000000" stroke-width="1.4173229" stroke-linecap="round" fill="#FFFFFF"  fill-rule="evenodd"/>
     <g transform="matrix(1,0,0,1,1.4173203,1.4173241)">
      <text x="27.479626" y="4.5368505" class="TextStyle0" fill="#000000" opacity="1" transform="matrix(1,0,0,-1,0,18.567636)">Node3</text>
     </g>
    </g>
    <g transform="matrix(1,0,0,1,97.79527,496.06296)" v:mID="23">
     <title>Shape23</title>
     <g transform="matrix(1,0,0,1,1.4173241,0.70866156)">
      <text x="12.966727" y="4.5368505" class="TextStyle0" fill="#000000" opacity="1" transform="matrix(1,0,0,-1,0,6.8747244)">buildTransaction()</text>
     </g>
    </g>
    <g transform="matrix(1,0,0,1,177.87402,449.99997)" v:mID="24">
     <title>Shape24</title>
     <g transform="matrix(1,0,0,1,1.4173241,0.70866156)">
      <text x="15.759984" y="4.5368505" class="TextStyle0" fill="#000000" opacity="1" transform="matrix(1,0,0,-1,0,6.8747244)">submitTransaction()</text>
     </g>
    </g>
    <g transform="matrix(1,0,0,1,186.37796,474.80316)" v:mID="25">
     <title>Shape25</title>
     <g transform="matrix(1,0,0,1,1.4173241,0.70866156)">
      <text x="14.222042" y="4.5368505" class="TextStyle0" fill="#000000" opacity="1" transform="matrix(1,0,0,-1,0,6.8747244)">updateMyUtxos()</text>
     </g>
    </g>
    <g transform="matrix(1,0,0,1,455.6693,419.52753)" v:mID="26">
     <title>Shape26</title>
     <g transform="matrix(1,0,0,1,1.4173241,0.70866156)">
      <text x="11.711415" y="4.5368505" class="TextStyle0" fill="#000000" opacity="1" transform="matrix(1,0,0,-1,0,6.8747244)">verifyTransaction()</text>
     </g>
    </g>
    <g transform="matrix(1,0,0,1,462.7559,299.40945)" v:mID="27">
     <title>Shape27</title>
     <g transform="matrix(1,0,0,1,1.4173222,0.70866156)">
      <text x="9.896378" y="4.5368505" class="TextStyle0" fill="#000000" opacity="1" transform="matrix(1,0,0,-1,0,6.8747244)">verifyBlock()</text>
     </g>
    </g>
    <g transform="matrix(1,0,0,1,-362.83463,289.8425)" v:mID="28">
     <title>Dynamic connector.28</title>
     <path d="M637.795288086,177.874008179 L637.795288086,177.874008179 Z" stroke="#000000" stroke-width="1.4173229" stroke-linecap="round" fill="none"/>
    </g>
    <g transform="matrix(1,0,0,1,-459.92123,289.8425)" v:mID="29">
     <title>Dynamic connector.29</title>
     <path d="M729.121887207,174.994018555 L734.881896973,177.874008179 L729.121887207,180.753997803 M729.121887207,174.994018555 C730.273864746,176.722000122 730.273864746,179.026016235 729.121887207,180.753997803 " stroke="#000000" stroke-width="0" fill="#000000"  fill-rule="evenodd" transform="matrix(1,0,0,1,0,0)"/>
     <path d="M637.795288086,177.874008179 L734.881896973,177.874008179 " stroke="#000000" stroke-width="1.4173229" stroke-linecap="round" fill="none"/>
    </g>
    <g transform="matrix(1,0,0,1,-459.92123,289.8425)" v:mID="30">
     <title>Dynamic connector.30</title>
     <path d="M632.03527832,174.994018555 L637.795288086,177.874008179 L632.03527832,180.753997803 M632.03527832,174.994018555 C633.187255859,176.722000122 633.187255859,179.026016235 632.03527832,180.753997803 " stroke="#000000" stroke-width="0" fill="#000000"  fill-rule="evenodd" transform="matrix(-1,0,0,-1,1275.5906,355.74802)"/>
     <path d="M734.881896973,177.874008179 L637.795288086,177.874008179 " stroke="#000000" stroke-width="1.4173229" stroke-linecap="round" fill="none"/>
    </g>
    <g transform="matrix(1,0,0,1,-459.92123,215.43307)" v:mID="31">
     <title>Dynamic connector.31</title>
     <path d="M729.121887207,174.994018555 L734.881896973,177.874008179 L729.121887207,180.753997803 M729.121887207,174.994018555 C730.273864746,176.722000122 730.273864746,179.026016235 729.121887207,180.753997803 " stroke="#000000" stroke-width="0" fill="#000000"  fill-rule="evenodd" transform="matrix(1,0,0,1,0,0)"/>
     <path d="M637.795288086,177.874008179 L734.881896973,177.874008179 " stroke="#000000" stroke-width="1.4173229" stroke-linecap="round" fill="none"/>
    </g>
    <g transform="matrix(1,0,0,1,-459.92123,215.43307)" v:mID="32">
     <title>Dynamic connector.32</title>
     <path d="M632.03527832,174.994018555 L637.795288086,177.874008179 L632.03527832,180.753997803 M632.03527832,174.994018555 C633.187255859,176.722000122 633.187255859,179.026016235 632.03527832,180.753997803 " stroke="#000000" stroke-width="0" fill="#000000"  fill-rule="evenodd" transform="matrix(-1,0,0,-1,1275.5906,355.74802)"/>
     <path d="M734.881896973,177.874008179 L637.795288086,177.874008179 " stroke="#000000" stroke-width="1.4173229" stroke-linecap="round" fill="none"/>
    </g>
   </g>
  </g>
 </g>
 <style type="text/css"><![CDATA[ .TextStyle0 {font-family:Times New Roman;font-size:7.5614176px;} ]]></style>
</svg>
